<!DOCTYPE svg PUBLIC "-//W3C//DTD SVG 1.1//EN" "http://www.w3.org/Graphics/SVG/1.1/DTD/svg11.dtd">

<!-- Uploaded to: SVG Repo, www.svgrepo.com, Transformed by: SVG Repo Mixer Tools -->
<svg fill="#fff" height="256px" width="256px" version="1.1" id="Capa_1" xmlns="http://www.w3.org/2000/svg" xmlns:xlink="http://www.w3.org/1999/xlink" viewBox="0 0 459.889 459.889" xml:space="preserve" stroke="#fff" stroke-width="0.0045988900000000004">

<g id="SVGRepo_bgCarrier" stroke-width="0"/>

<g id="SVGRepo_tracerCarrier" stroke-linecap="round" stroke-linejoin="round"/>

<g id="SVGRepo_iconCarrier"> <path id="XMLID_1281_" d="M310.138,274.839c0.197-18.678-5.973-35.675-16.929-46.63c-14.351-14.351-36.018-17.934-56.75-11.495 c-4.476-19.904-9.113-39.879-13.671-59.445c3.706-4.763,7.307-9.278,10.782-13.634c24.694-30.958,42.536-53.327,38.402-92.602 c-3.566-33.879-15.748-45.525-25.339-49.33c-9.226-3.661-19.637-1.357-28.558,6.321c-20.27,17.447-35.488,64.636-21,127.011 c1.346,5.795,2.711,11.657,4.089,17.571c-8.521,11.282-17.693,24.235-26.945,39.363c-28.073,45.896-26.966,79.653-21.094,99.891 c5.945,20.491,19.521,37.243,37.244,45.959c17.589,8.65,35.056,12.09,51.405,10.454c2.894,19.703,4.808,37.689,5.328,53.007 c-5.372-2.577-11.572-4.057-18.175-4.057c-20.402,0-37,14.056-37,31.333c0,17.277,16.598,31.333,37,31.333 c19.905,0,34.485-13.283,36.596-26.11c3.518-21.373,1.309-53.042-4.184-90.106c10.505-3.993,20.278-10.368,28.993-19.083 C302.716,312.209,309.934,294.075,310.138,274.839z M231.124,23.182c1.796-1.546,4.242-3.184,6.544-3.184 c0.542,0,1.076,0.091,1.592,0.295c4.51,1.789,10.573,11.46,12.822,32.833c3.276,31.12-10.81,48.779-34.147,78.036 c-0.314,0.395-0.631,0.791-0.949,1.191c-0.143-0.615-0.286-1.229-0.428-1.842C203.191,72.96,218.399,34.136,231.124,23.182z M199.197,319.871c-12.503-6.149-22.545-18.704-26.863-33.585c-6.811-23.475-0.259-52.48,18.948-83.882 c5.385-8.804,10.688-16.774,15.862-24.109c3.581,15.446,7.216,31.268,10.761,47.138c-4.702,3.035-9.2,6.646-13.377,10.822 c-3.905,3.905-3.905,10.237,0,14.142c3.906,3.906,10.236,3.906,14.143,0c1.275-1.276,2.59-2.482,3.935-3.618 c6.114,28.214,11.741,56.122,16.068,81.861C226.39,329.63,213.119,326.718,199.197,319.871z M228.929,439.889 c-9.056,0-17-5.296-17-11.333c0-6.037,7.944-11.333,17-11.333s17,5.296,17,11.333C245.929,434.594,237.985,439.889,228.929,439.889z M276.192,310.449c-5.612,5.612-11.656,9.945-18.074,12.99c-4.641-27.383-10.698-57.018-17.317-87.194 c14.282-5.016,28.927-3.234,38.267,6.106C293.442,256.725,294.97,291.67,276.192,310.449z"/> </g>

</svg>